<svg width="158" height="46" viewBox="0 0 158 46" fill="none" xmlns="http://www.w3.org/2000/svg">
    <path d="M26.9882 22.0583C26.9558 20.1768 26.2097 18.5224 24.977 17.3221C23.7443 16.1219 22.0574 15.4082 20.2084 15.4082H20.0786C18.2296 15.4406 16.5751 16.2192 15.3749 17.4195C14.1746 18.6522 13.4609 20.339 13.4609 22.2205V22.3503C13.5258 26.0159 16.5103 28.903 20.2084 28.903H20.3057V28.2867V28.903C22.1872 28.8706 23.874 28.1245 25.0743 26.9242C26.2746 25.724 26.9882 24.0371 26.9882 22.1556V22.0583ZM20.2732 25.432C18.4566 25.4645 16.9644 24.0371 16.932 22.2529C16.8995 20.4039 18.3269 18.9117 20.1435 18.8792C21.9925 18.8468 23.4848 20.2741 23.5172 22.1232C23.5496 23.9722 22.1547 25.3996 20.2732 25.432Z" fill="#00B5EF"/>
    <path d="M29.4866 22.1554C29.4866 17.03 25.3344 12.9102 20.2414 12.9102C15.1159 12.9102 10.9961 17.0624 10.9961 22.1554C10.9961 27.2809 15.1484 31.4007 20.2414 31.4007C25.3668 31.4007 29.4866 27.2809 29.4866 22.1554ZM20.2414 30.979C17.8084 30.979 15.6025 30.0058 14.013 28.3838C12.4234 26.7943 11.4178 24.5884 11.4178 22.1554C11.4178 19.7225 12.391 17.5166 14.013 15.927C15.6025 14.3375 17.8084 13.3319 20.2414 13.3319C22.6743 13.3319 24.8802 14.3051 26.4698 15.927C28.0593 17.5166 29.0649 19.7225 29.0649 22.1554C29.0649 24.5884 28.0917 26.7943 26.4698 28.3838C24.8802 29.9734 22.6743 30.979 20.2414 30.979Z" fill="#00B5EF"/>
    <path d="M9.08188 21.1176C9.11432 20.5012 9.21164 19.8849 9.37384 19.301L9.24408 19.1388C6.16232 16.2192 3.11301 13.2672 0.03125 10.3477V11.8723C0.420524 12.294 0.809798 12.7482 1.23151 13.1375C3.7618 15.7975 6.3894 18.3927 9.08188 21.1176Z" fill="#00B5EF"/>
    <path d="M8.75734 2.72457C11.4498 5.51437 14.2396 8.17441 16.9645 10.9642C17.0619 11.0615 17.1267 11.1264 17.2241 11.1913C17.808 11.0291 18.4243 10.8993 19.0407 10.8344C15.4075 7.39586 11.8391 4.02215 8.27075 0.648438H6.74609L8.07612 1.97846C8.27075 2.23797 8.53027 2.49749 8.75734 2.72457Z" fill="#00B5EF"/>
    <path d="M9.99137 17.452C10.186 16.9654 10.4455 16.5113 10.705 16.0895C7.10425 12.651 3.56835 9.2448 0 5.87109V7.46063L2.59516 9.99091C4.96325 12.5212 7.49353 14.9542 9.99137 17.452Z" fill="#00B5EF"/>
    <path d="M9.08307 12.0348C9.95893 12.9107 10.8348 13.7865 11.7431 14.6624C12.0675 14.2731 12.4243 13.9163 12.7812 13.5919C10.4455 11.386 8.17476 9.21255 5.90399 7.0391L0 1.23242V2.78952L8.69379 11.6131L9.08307 12.0348Z" fill="#00B5EF"/>
    <path d="M4.54035 20.9556C4.63766 21.0529 4.70254 21.1178 4.79986 21.1827H6.90843C4.57278 18.9443 2.26958 16.7709 0.03125 14.6299V16.4141C1.52347 17.9387 3.04813 19.3985 4.54035 20.9556Z" fill="#00B5EF"/>
    <path d="M19.2676 2.49728L17.4185 0.680664H15.6992C16.867 1.94581 18.0349 3.21095 19.2351 4.50853V2.49728H19.2676Z" fill="#00B5EF"/>
    <path d="M2.40053 21.1827C1.58954 20.4366 0.778549 19.6904 0 18.9443V20.8907C0.0973186 20.988 0.194637 21.0853 0.324395 21.1827H2.40053Z" fill="#00B5EF"/>
    <path d="M13.7547 12.2616C13.852 12.3589 13.9169 12.4238 14.0142 12.5211L14.1439 12.6184C14.5332 12.3589 14.9549 12.1318 15.3766 11.9372C12.3273 9.01762 9.31044 6.09807 6.26112 3.17851L3.6984 0.680664H2.33594L6.06648 4.54097C8.59677 7.16857 11.2244 9.66641 13.7547 12.2616Z" fill="#00B5EF"/>
    <path d="M19.2689 8.95274V6.90905L16.8683 4.54097C15.5059 3.27583 14.1434 1.97825 12.7485 0.680664H11.1914L15.4085 4.93024C16.6737 6.26026 17.9713 7.59028 19.2689 8.95274Z" fill="#00B5EF"/>
    <path d="M31.0117 19.3008C31.1415 19.8847 31.2388 20.5011 31.3037 21.1174C33.9962 18.3925 36.6238 15.7973 39.154 13.1373C39.446 12.8453 39.7055 12.5209 39.9975 12.229V10.6719C37.0455 13.4941 34.0935 16.3164 31.1415 19.1386L31.0117 19.3008Z" fill="#00B5EF"/>
    <path d="M23.1604 11.2233C23.2252 11.1584 23.3226 11.0935 23.4199 10.9962C26.1124 8.20642 28.9346 5.54638 31.6271 2.75658C31.8542 2.49706 32.1137 2.26999 32.3408 2.01047L33.6383 0.712891H32.1137C28.5453 4.0866 24.977 7.46031 21.3438 10.8989C21.9601 10.9313 22.5765 11.0611 23.1604 11.2233Z" fill="#00B5EF"/>
    <path d="M26.2444 12.586L26.3742 12.4887C26.4715 12.4238 26.5364 12.3265 26.6337 12.2291C29.164 9.63398 31.7916 7.10369 34.2894 4.50853L38.02 0.680664H36.6575L34.1272 3.14607C31.0779 6.06563 28.061 8.98518 25.0117 11.9047C25.4334 12.0994 25.8551 12.3589 26.2444 12.586Z" fill="#00B5EF"/>
    <path d="M30.3621 17.452C32.8599 14.9542 35.3578 12.5212 37.7583 9.99095L39.9966 7.78506V6.16309C36.5581 9.43948 33.1195 12.7159 29.6484 16.0571C29.908 16.5113 30.1675 16.9655 30.3621 17.452Z" fill="#00B5EF"/>
    <path d="M35.5539 21.1825C35.6512 21.1176 35.7161 21.0203 35.8134 20.9554C37.1759 19.5281 38.6032 18.1656 39.9657 16.7707V14.9541C37.8247 16.9978 35.6512 19.0739 33.4453 21.1825H35.5539Z" fill="#00B5EF"/>
    <path d="M22.935 0.680664L21.0859 2.49728V4.50853C22.2862 3.21095 23.4865 1.91337 24.6218 0.680664H22.935Z" fill="#00B5EF"/>
    <path d="M39.9968 21.1825V19.2686C39.3156 19.8849 38.6344 20.5337 37.9531 21.1825H39.9968Z" fill="#00B5EF"/>
    <path d="M27.5742 13.6239C27.9311 13.9483 28.2879 14.3052 28.6123 14.6944C29.4882 13.8186 30.3965 12.9427 31.2723 12.0668L31.6616 11.6776L39.9986 3.21084V1.58887L34.4838 7.07115C32.1806 9.21216 29.9099 11.3856 27.5742 13.6239Z" fill="#00B5EF"/>
    <path d="M29.1634 0.680664H27.6063C26.2438 1.97825 24.8814 3.27583 23.4865 4.54097L21.0859 6.90905V8.95274C22.3835 7.59028 23.6811 6.26026 24.9462 4.8978L29.1634 0.680664Z" fill="#00B5EF"/>
    <path d="M9.34258 24.9133C9.21283 24.3294 9.11551 23.713 9.05063 23.0967C6.35815 25.8216 3.73055 28.4168 1.20026 31.0768C0.810987 31.4985 0.389274 31.9202 0 32.3419V33.8666C3.04932 30.9146 6.13107 27.995 9.21283 25.0755L9.34258 24.9133Z" fill="#00B5EF"/>
    <path d="M17.1915 32.9902C17.0941 33.0551 17.0293 33.12 16.9319 33.2173C14.2395 36.0071 11.4172 38.6672 8.72474 41.457C8.49767 41.684 8.23815 41.9435 8.01108 42.2031L6.32422 43.8899H7.81644C11.5145 40.4189 15.2127 36.883 19.0081 33.3146C18.3917 33.2822 17.7754 33.1524 17.1915 32.9902Z" fill="#00B5EF"/>
    <path d="M14.1129 31.6279L13.9831 31.7252C13.8858 31.7901 13.8209 31.8874 13.7236 31.9848C11.1933 34.5799 8.56569 37.1102 6.06785 39.7054L1.98047 43.9225H3.31049L6.23005 41.0678C9.27936 38.1483 12.2962 35.2287 15.3456 32.3092C14.9238 32.1145 14.5021 31.8874 14.1129 31.6279Z" fill="#00B5EF"/>
    <path d="M9.99137 26.7949C7.49353 29.2928 4.99569 31.7257 2.59516 34.256L0 36.7863V38.3758C3.53591 34.9697 7.10425 31.596 10.705 28.1574C10.4455 27.7032 10.186 27.2491 9.99137 26.7949Z" fill="#00B5EF"/>
    <path d="M12.78 30.6223C12.4232 30.2979 12.0663 29.941 11.7419 29.5518C10.8661 30.4276 9.95775 31.3035 9.08188 32.1794L8.72505 32.5686L0.03125 41.4246V42.9817L5.9028 37.175C8.17357 35.0016 10.4443 32.8282 12.78 30.6223Z" fill="#00B5EF"/>
    <path d="M4.79986 23.0312C4.70254 23.0961 4.63766 23.1934 4.54035 23.2583C3.04813 24.783 1.52347 26.2752 0.03125 27.7999V29.584C2.30202 27.443 4.57278 25.2696 6.90843 23.0312H4.79986Z" fill="#00B5EF"/>
    <path d="M17.0619 43.9232L19.2677 41.7173V39.7061C17.9377 41.1334 16.6401 42.5283 15.375 43.9232H17.0619Z" fill="#00B5EF"/>
    <path d="M0.324395 23.0312C0.227077 23.0961 0.0973186 23.1934 0 23.3232V25.2696C0.778549 24.5235 1.58954 23.8098 2.40053 23.0312H0.324395Z" fill="#00B5EF"/>
    <path d="M10.8359 43.9231H12.393C13.8853 42.4957 15.3775 41.1008 16.9021 39.6735L19.2053 37.4027L19.3027 37.273V35.2617C18.0051 36.6242 16.7075 37.9542 15.4424 39.2842L10.8359 43.9231Z" fill="#00B5EF"/>
    <path d="M31.2724 23.0967C31.24 23.713 31.1427 24.3294 30.9805 24.9133L31.1102 25.0755C34.0622 27.8977 37.0142 30.72 39.9662 33.5422V31.9851C39.6743 31.6932 39.4147 31.3688 39.1228 31.0768C36.5925 28.4168 33.9649 25.8216 31.2724 23.0967Z" fill="#00B5EF"/>
    <path d="M31.5958 41.4902C28.9033 38.7004 26.1135 36.0403 23.3886 33.2505C23.2913 33.1532 23.2264 33.0883 23.1291 33.0234C22.5452 33.1856 21.9289 33.3154 21.3125 33.3803C25.0755 36.9486 28.806 40.4521 32.5041 43.9556H33.9964L32.3095 42.2687C32.0824 41.9767 31.8229 41.7172 31.5958 41.4902Z" fill="#00B5EF"/>
    <path d="M30.3621 26.7949C30.1675 27.2815 29.908 27.7357 29.6484 28.1574C33.1195 31.4987 36.5581 34.775 39.9966 38.0514V36.4295L37.7583 34.2236C35.3902 31.6933 32.8599 29.2603 30.3621 26.7949Z" fill="#00B5EF"/>
    <path d="M31.2723 32.1794C30.3965 31.3035 29.5206 30.4276 28.6123 29.5518C28.2879 29.941 27.9311 30.2979 27.5742 30.6223C29.9099 32.8282 32.1806 35.0016 34.4514 37.175L39.9661 42.6573V41.0678L31.6292 32.5686L31.2723 32.1794Z" fill="#00B5EF"/>
    <path d="M35.8134 23.2915C35.7161 23.1942 35.6512 23.1293 35.5539 23.0645H33.4453C35.6512 25.173 37.8247 27.2492 39.9657 29.2928V27.4762C38.6032 26.0489 37.1759 24.6864 35.8134 23.2915Z" fill="#00B5EF"/>
    <path d="M21.0859 41.7173L23.2918 43.9232H24.9787C23.7135 42.5607 22.416 41.1658 21.0859 39.7061V41.7173Z" fill="#00B5EF"/>
    <path d="M39.9968 24.9452V23.0312H37.9531C38.6344 23.68 39.3156 24.2964 39.9968 24.9452Z" fill="#00B5EF"/>
    <path d="M26.6337 31.9525C26.5364 31.8552 26.4715 31.7903 26.3742 31.693L26.2444 31.5957C25.8551 31.8552 25.4334 32.0823 25.0117 32.2769C28.061 35.1965 31.0779 38.116 34.1272 41.0356L37.0468 43.8903H38.3768L34.2894 39.6731C31.7591 37.078 29.1315 34.5477 26.6337 31.9525Z" fill="#00B5EF"/>
    <path d="M21.0859 35.2617V37.273L21.1833 37.4027L23.4865 39.6735C24.9787 41.0684 26.5033 42.4957 27.9956 43.9231H29.5527L24.9787 39.3167C23.6811 37.9542 22.3835 36.6242 21.0859 35.2617Z" fill="#00B5EF"/>
    <path d="M53.9223 24.6335V0.417969H53.8388L47.9102 4.3843V30.5204H65.9048V24.6335H64.6523H53.9223Z" fill="white"/>
    <path d="M68.5781 30.5199H74.5902V0.333984L68.5781 4.30032V30.5199Z" fill="white"/>
    <path d="M97.9702 4.59306C95.1728 1.79575 91.3735 0.417969 86.9479 0.417969H77.2617V30.5204H86.9479C91.4153 30.5204 95.1728 29.1426 97.9702 26.3453C100.767 23.5897 102.187 19.8321 102.187 15.4483C102.187 11.1062 100.767 7.34861 97.9702 4.59306ZM93.6281 22.2537C92.0415 23.8402 89.8705 24.6335 86.9062 24.6335H83.2321V6.26309H86.9062C89.9122 6.26309 92.0415 7.09811 93.6281 8.68464C95.2146 10.2712 96.0496 12.4422 96.0496 15.4483C96.0496 18.4961 95.2146 20.6671 93.6281 22.2537Z" fill="white"/>
    <path d="M111.704 0.417969L100.348 30.5204H106.944L109.616 23.1304L110.535 20.5836L110.827 19.7069L111.746 17.2018L114.585 9.43616L117.424 17.2436H117.382L118.301 19.7069L118.635 20.5419L119.595 23.1304H119.553L122.183 30.5204H128.78L117.424 0.417969H111.704Z" fill="white"/>
    <path d="M142.475 5.80337C145.314 5.80337 147.652 6.93065 149.865 9.39395L150.7 10.3542L155 6.17913L154.291 5.30236C152.871 3.59057 151.118 2.2963 149.072 1.37778C147.026 0.459261 144.813 0 142.475 0C138.133 0 134.375 1.50303 131.453 4.46734C128.572 7.3899 127.069 11.1057 127.027 15.4061C127.027 15.4061 127.027 15.4061 127.027 15.4478V15.4896V15.5313C127.027 15.5313 127.027 15.5313 127.027 15.5731C127.069 19.8734 128.53 23.5892 131.453 26.5118C134.375 29.4761 138.175 30.9792 142.475 30.9792C144.813 30.9792 147.026 30.5199 149.072 29.6014C151.118 28.6829 152.871 27.3468 154.291 25.6768L155 24.8L150.7 20.6249L149.865 21.5852C147.694 24.0485 145.314 25.1758 142.475 25.1758C139.72 25.1758 137.549 24.299 135.712 22.462C133.958 20.7084 133.081 18.4539 133.039 15.4896C133.081 12.5253 133.958 10.3125 135.712 8.51718C137.549 6.68014 139.72 5.80337 142.475 5.80337Z" fill="white"/>
    <path d="M48.72 44V36.84H51.31C51.8767 36.84 52.3633 37.0267 52.77 37.4C53.1767 37.7667 53.38 38.23 53.38 38.79C53.38 39.4967 53.0567 39.9933 52.41 40.28V40.32C52.7767 40.44 53.07 40.65 53.29 40.95C53.51 41.2433 53.62 41.58 53.62 41.96C53.62 42.5467 53.4067 43.0333 52.98 43.42C52.5667 43.8067 52.0567 44 51.45 44H48.72ZM49.64 43.12H51.49C51.8233 43.12 52.1067 43.0033 52.34 42.77C52.5667 42.5367 52.68 42.26 52.68 41.94C52.68 41.6267 52.5633 41.3533 52.33 41.12C52.0967 40.8867 51.8033 40.77 51.45 40.77H49.64V43.12ZM49.64 39.91H51.31C51.6367 39.91 51.91 39.8 52.13 39.58C52.35 39.3533 52.46 39.0967 52.46 38.81C52.46 38.53 52.3533 38.2767 52.14 38.05C51.9267 37.83 51.6633 37.72 51.35 37.72H49.64V39.91ZM56.7575 36.84H57.7975L60.4975 44H59.4775L58.7875 42.06H55.7775L55.0775 44H54.0575L56.7575 36.84ZM58.4675 41.2L57.2975 37.97H57.2575L56.0875 41.2H58.4675ZM60.8572 37.72V36.84H65.7772V37.72H63.7772V44H62.8572V37.72H60.8572ZM66.2576 37.72V36.84H71.1776V37.72H69.1776V44H68.2576V37.72H66.2576ZM76.318 36.84V37.72H73.058V39.99H75.998V40.85H73.058V43.12H76.318V44H72.138V36.84H76.318ZM77.5579 36.84H79.9979C80.6179 36.84 81.1446 37.0467 81.5779 37.46C82.0179 37.8667 82.2379 38.37 82.2379 38.97C82.2379 39.4633 82.0746 39.9033 81.7479 40.29C81.4279 40.67 81.0212 40.9133 80.5279 41.02L80.5079 41.05L82.5179 43.96V44H81.4279L79.4979 41.1H78.4779V44H77.5579V36.84ZM78.4779 40.24H79.9579C80.3312 40.24 80.6479 40.12 80.9079 39.88C81.1679 39.6333 81.2979 39.33 81.2979 38.97C81.2979 38.6367 81.1746 38.3467 80.9279 38.1C80.6879 37.8467 80.3846 37.72 80.0179 37.72H78.4779V40.24ZM82.7391 36.84H83.8191L85.5891 39.75H85.6291L87.3591 36.84H88.4391L86.0691 40.67V44H85.1491V40.67L82.7391 36.84ZM91.7766 44V36.84H92.6966L95.1866 41.2H95.2266L97.7166 36.84H98.6366V44H97.7166V39.75L97.7566 38.55H97.7166L95.4766 42.48H94.9366L92.6966 38.55H92.6566L92.6966 39.75V44H91.7766ZM104.257 36.84V37.72H100.997V39.99H103.937V40.85H100.997V43.12H104.257V44H100.077V36.84H104.257ZM106.617 36.84L110.097 42.41H110.137L110.097 41.03V36.84H111.017V44H110.057L106.417 38.16H106.377L106.417 39.54V44H105.497V36.84H106.617ZM114.56 36.84H115.6L118.3 44H117.28L116.59 42.06H113.58L112.88 44H111.86L114.56 36.84ZM116.27 41.2L115.1 37.97H115.06L113.89 41.2H116.27ZM119.35 38.87C119.523 38.4167 119.773 38.0333 120.1 37.72C120.427 37.4 120.82 37.1567 121.28 36.99C121.74 36.8233 122.253 36.74 122.82 36.74C123.2 36.74 123.573 36.7767 123.94 36.85C124.307 36.9167 124.663 37.0267 125.01 37.18L124.63 38.03C124.337 37.9033 124.033 37.8033 123.72 37.73C123.413 37.65 123.097 37.61 122.77 37.61C122.337 37.61 121.953 37.68 121.62 37.82C121.293 37.9533 121.017 38.1433 120.79 38.39C120.57 38.6367 120.403 38.9333 120.29 39.28C120.177 39.62 120.12 40 120.12 40.42C120.12 40.8533 120.17 41.2467 120.27 41.6C120.377 41.9467 120.537 42.2433 120.75 42.49C120.97 42.73 121.243 42.9167 121.57 43.05C121.903 43.1767 122.297 43.24 122.75 43.24C122.97 43.24 123.193 43.23 123.42 43.21C123.647 43.1833 123.867 43.1433 124.08 43.09L124.1 43.08V41.06H122.54V40.18H125.09V43.72C124.67 43.86 124.25 43.9567 123.83 44.01C123.41 44.07 122.98 44.1 122.54 44.1C121.973 44.1 121.473 44.0133 121.04 43.84C120.607 43.66 120.247 43.41 119.96 43.09C119.673 42.77 119.457 42.3833 119.31 41.93C119.163 41.4767 119.09 40.9733 119.09 40.42C119.09 39.84 119.177 39.3233 119.35 38.87ZM130.429 36.84V37.72H127.169V39.99H130.109V40.85H127.169V43.12H130.429V44H126.249V36.84H130.429ZM131.669 44V36.84H132.589L135.079 41.2H135.119L137.609 36.84H138.529V44H137.609V39.75L137.649 38.55H137.609L135.369 42.48H134.829L132.589 38.55H132.549L132.589 39.75V44H131.669ZM144.15 36.84V37.72H140.89V39.99H143.83V40.85H140.89V43.12H144.15V44H139.97V36.84H144.15ZM146.51 36.84L149.99 42.41H150.03L149.99 41.03V36.84H150.91V44H149.95L146.31 38.16H146.27L146.31 39.54V44H145.39V36.84H146.51ZM151.873 37.72V36.84H156.793V37.72H154.793V44H153.873V37.72H151.873Z" fill="white"/>
</svg>
